<?xml version="1.0" standalone="no"?>
<!DOCTYPE svg PUBLIC "-//W3C//DTD SVG 20010904//EN"
 "http://www.w3.org/TR/2001/REC-SVG-20010904/DTD/svg10.dtd">
<svg version="1.0" xmlns="http://www.w3.org/2000/svg" width="42px" height="42px" viewBox="0 0 101.000000 104.000000" preserveAspectRatio="xMidYMid meet">

<g transform="translate(0.000000,104.000000) scale(0.100000,-0.100000)" fill="#ffc0a4" stroke="none">
<path d="M560 1011 c-99 -32 -163 -107 -177 -206 -9 -72 13 -132 71 -190 76
-76 166 -95 256 -54 96 43 144 117 144 219 0 95 -44 169 -128 212 -43 22 -128
32 -166 19z m151 -54 c146 -77 143 -291 -6 -358 -72 -33 -166 -19 -224 34 -56
52 -76 151 -46 225 46 108 173 153 276 99z"/>
<path d="M571 883 c-11 -10 -24 -32 -27 -48 -7 -38 24 -81 68 -93 l30 -8 -27
-32 c-21 -25 -25 -36 -17 -44 9 -9 18 -6 37 12 61 57 84 166 45 208 -25 27
-79 29 -109 5z m80 -32 c21 -16 22 -22 11 -45 -19 -42 -82 -30 -82 15 0 18 25
49 40 49 4 0 18 -8 31 -19z"/>
<path d="M200 631 c-99 -32 -163 -107 -177 -206 -9 -72 13 -132 71 -190 76
-76 166 -95 256 -54 96 43 144 117 144 219 0 95 -44 169 -128 212 -43 22 -128
32 -166 19z m151 -54 c146 -77 143 -291 -6 -358 -72 -33 -166 -19 -224 34 -56
52 -76 151 -46 225 46 108 173 153 276 99z"/>
<path d="M212 507 c-12 -13 -22 -31 -22 -40 0 -23 27 -21 40 3 13 24 42 26 60
5 16 -20 6 -43 -25 -55 -32 -12 -32 -28 0 -40 31 -12 41 -35 25 -55 -19 -23
-49 -18 -62 10 -14 32 -38 32 -38 1 0 -28 42 -66 72 -66 52 0 85 54 64 105
-10 24 -9 35 1 57 12 23 12 31 -1 56 -25 48 -78 57 -114 19z"/>
<path d="M700 511 c-112 -36 -174 -119 -174 -231 0 -164 150 -275 308 -228 55
16 138 99 154 154 34 114 -16 232 -122 286 -43 22 -128 32 -166 19z m138 -46
c104 -44 151 -167 103 -270 -75 -162 -315 -149 -371 21 -53 160 113 313 268
249z"/>
<path d="M705 378 c-3 -13 -6 -41 -8 -63 l-2 -40 43 0 c44 0 62 -14 62 -47 0
-19 -26 -48 -44 -48 -19 0 -44 23 -48 45 -5 27 -32 25 -36 -2 -5 -34 39 -73
81 -73 45 0 76 26 83 70 7 45 -23 87 -70 95 -28 6 -32 10 -28 31 4 20 10 24
43 24 28 0 39 4 39 15 0 12 -13 15 -55 15 -48 0 -55 -3 -60 -22z"/>
</g>
</svg>
