<?xml version="1.0" encoding="utf-8"?>
<!-- Generator: Adobe Illustrator 16.0.0, SVG Export Plug-In . SVG Version: 6.00 Build 0)  -->
<!DOCTYPE svg PUBLIC "-//W3C//DTD SVG 1.1//EN" "http://www.w3.org/Graphics/SVG/1.1/DTD/svg11.dtd">
<svg version="1.1" id="圖層_1" xmlns="http://www.w3.org/2000/svg" xmlns:xlink="http://www.w3.org/1999/xlink" x="0px" y="0px"
	 width="20px" height="20px" viewBox="15 15 20 20" enable-background="new 15 15 20 20" xml:space="preserve">
<path fill="#8feb83" d="M25,15c-5.514,0-10,4.486-10,10c0,5.515,4.486,10,10,10c5.515,0,10-4.485,10-10C35,19.486,30.515,15,25,15z
	 M17.625,22.589l-1.248,1.416c0.094-0.822,0.303-1.621,0.625-2.383c0.135-0.318,0.29-0.63,0.462-0.931L17.625,22.589z
	 M33.618,23.965l-1.213-1.374l0.168-1.834c0.157,0.281,0.299,0.57,0.424,0.865C33.314,22.372,33.522,23.157,33.618,23.965z
	 M28.653,32.875l0.953-1.591l1.772-0.4c-0.078,0.086-0.159,0.17-0.242,0.253C30.411,31.861,29.578,32.445,28.653,32.875z
	 M29.324,23.332l-3.664-2.675v-2.316l2.914-1.251c0.956,0.432,1.817,1.028,2.563,1.774c0.089,0.088,0.175,0.178,0.259,0.27
	l-0.299,3.265L29.324,23.332z M29.664,24.646l1.905-1.005l2.057,2.329c-0.092,0.83-0.303,1.64-0.629,2.409
	c-0.126,0.301-0.273,0.598-0.436,0.885l-3.146,0.709l-1.099-1.209L29.664,24.646z M22.904,28.276l-1.262-3.994l3.378-2.457
	l3.372,2.46l-1.307,3.991H22.904z M21.443,17.081l2.896,1.258v2.347l-3.542,2.577l-1.865-0.883l-0.279-3.3
	c0.068-0.073,0.138-0.145,0.209-0.217C19.613,18.113,20.48,17.514,21.443,17.081z M22.762,29.598h4.527l1.079,1.187l-1.63,2.72
	c-1.131,0.23-2.31,0.234-3.447,0.007l-1.606-2.726L22.762,29.598z M25.001,17.186l-1.639-0.711c1.077-0.205,2.213-0.204,3.291,0.002
	L25.001,17.186z M20.326,24.502l1.363,4.312l-1.054,1.163l-3.183-0.688c-0.169-0.298-0.321-0.604-0.45-0.91
	c-0.321-0.76-0.531-1.559-0.625-2.377l2.095-2.378L20.326,24.502z M20.447,31.287l0.949,1.611c-0.944-0.431-1.795-1.023-2.534-1.762
	c-0.08-0.079-0.158-0.16-0.234-0.243L20.447,31.287z"/>
</svg>
