<?xml version="1.0" encoding="utf-8"?>
<!-- Generator: Adobe Illustrator 16.0.0, SVG Export Plug-In . SVG Version: 6.00 Build 0)  -->
<!DOCTYPE svg PUBLIC "-//W3C//DTD SVG 1.1//EN" "http://www.w3.org/Graphics/SVG/1.1/DTD/svg11.dtd">
<svg version="1.1" id="圖層_1" xmlns="http://www.w3.org/2000/svg" xmlns:xlink="http://www.w3.org/1999/xlink" x="0px" y="0px"
	 width="20px" height="20px" viewBox="140 140 20 20" enable-background="new 140 140 20 20" xml:space="preserve">
<g display="none">
	<rect x="-576" display="inline" width="555" height="297"/>
	<rect y="-108" display="inline" width="300" height="90"/>
	<text transform="matrix(1 0 0 1 198 -58.5029)" display="inline" font-family="'ArialMT'" font-size="7.2">http://thenounproject.com</text>
	<text transform="matrix(1 0 0 1 21.498 -73.5029)" display="inline" font-family="'ArialMT'" font-size="18.4734">The Noun Project</text>
	<text transform="matrix(1 0 0 1 24.8574 -59.1006)" display="inline" font-family="'ArialMT'" font-size="12">Icon Template</text>
	<text transform="matrix(1 0 0 1 -535.5 31.4971)" display="inline" font-family="'ArialMT'" font-size="18.4734">Reminders</text>
	<line display="inline" fill="none" stroke="#000000" stroke-miterlimit="10" x1="24" y1="-43.5" x2="54" y2="-43.5"/>
	<line display="inline" fill="none" stroke="#000000" stroke-miterlimit="10" x1="-537" y1="49.5" x2="-486" y2="49.5"/>
	<g display="inline">
		<g>
			<g>
				<rect x="-512.406" y="93.954" width="26.163" height="25.926"/>
				<path d="M-493.365,126.936h14.241v-14.109h-14.241V126.936z M-477.798,128.247h-16.89V111.51h16.89V128.247L-477.798,128.247z
					 M-498.663,132.186h24.837v-24.609h-24.837V132.186L-498.663,132.186z M-472.5,133.5h-27.489v-27.237h27.489V133.5L-472.5,133.5
					z"/>
				<polygon points="-498.447,132.399 -498.876,131.973 -474.039,107.361 -473.613,107.787 				"/>
			</g>
		</g>
	</g>
	<rect x="-537" y="174" display="inline" fill="none" width="105" height="97.5"/>
	<text transform="matrix(1 0 0 1 -537 180.4717)" display="inline" font-family="'ArialMT'" font-size="9">Strokes</text>
	<text transform="matrix(1 0 0 1 -537 195.4717)" display="inline" font-family="'ArialMT'" font-size="7.2">Try to keep strokes at 4px</text>
	<text transform="matrix(1 0 0 1 -537 210.4717)" display="inline" font-family="'ArialMT'" font-size="7.2">Minimum stroke weight is 2px</text>
	<text transform="matrix(1 0 0 1 -537 223.9717)" display="inline" font-family="'ArialMT'" font-size="7.2">For thicker strokes use even </text>
	<text transform="matrix(1 0 0 1 -537 232.9717)" display="inline" font-family="'ArialMT'" font-size="7.2">numbers: 6px, 8px etc.</text>
	<text transform="matrix(1 0 0 1 -537 246.4717)" display="inline" font-family="'ArialMT'" font-size="7.2">Remember to expand strokes </text>
	<text transform="matrix(1 0 0 1 -537 255.4717)" display="inline" font-family="'ArialMT'" font-size="7.2">before saving as an SVG </text>
	<rect x="-409.5" y="174" display="inline" fill="none" width="105" height="97.5"/>
	<text transform="matrix(1 0 0 1 -409.5 180.4717)" display="inline" font-family="'ArialMT'" font-size="9">Size</text>
	<text transform="matrix(1 0 0 1 -409.5 195.4717)" display="inline" font-family="'ArialMT'" font-size="7.2">Cannot be wider or taller than </text>
	<text transform="matrix(1 0 0 1 -409.5 205.9717)" display="inline" font-family="'ArialMT'" font-size="7.2">100px (artboard size)</text>
	<text transform="matrix(1 0 0 1 -409.5 220.9717)" display="inline" font-family="'ArialMT'" font-size="7.2">Scale your icon to fill as much of </text>
	<text transform="matrix(1 0 0 1 -409.5 229.9717)" display="inline" font-family="'ArialMT'" font-size="7.2">the artboard as possible</text>
	<rect x="-282" y="174" display="inline" fill="none" width="105" height="97.5"/>
	<text transform="matrix(1 0 0 1 -282 180.4717)" display="inline" font-family="'ArialMT'" font-size="9">Ungroup</text>
	<text transform="matrix(1 0 0 1 -282 195.4717)" display="inline" font-family="'ArialMT'" font-size="7.2">If your design has more than one </text>
	<text transform="matrix(1 0 0 1 -282 204.4717)" display="inline" font-family="'ArialMT'" font-size="7.2">shape, make sure to ungroup</text>
	<rect x="-150" y="174" display="inline" fill="none" width="105" height="97.5"/>
	<text transform="matrix(1 0 0 1 -150 180.4717)" display="inline" font-family="'ArialMT'" font-size="9">Save as</text>
	<text transform="matrix(1 0 0 1 -150 195.4717)" display="inline" font-family="'ArialMT'" font-size="7.2">Save as .SVG and make sure </text>
	<text transform="matrix(1 0 0 1 -150 204.4717)" display="inline" font-family="'ArialMT'" font-size="7.2">“Use Artboards” is checked</text>
	<text transform="matrix(1.0074 0 0 1 -376.625 91.7803)" display="inline" font-family="'ArialMT'" font-size="7.7193">100px</text>
	<text transform="matrix(1.0074 0 0 1 -123 116.999)" display="inline" font-family="'ArialMT'" font-size="15.4386">.SVG</text>
	<rect x="-379.542" y="104.445" display="inline" width="30.783" height="30.555"/>
	<rect x="-379.431" y="95.298" display="inline" width="1.566" height="7.011"/>
	<rect x="-350.436" y="95.298" display="inline" width="1.569" height="7.011"/>
	<rect x="-381" y="97.011" display="inline" width="33.699" height="1.716"/>
	<g display="inline">
		<rect x="-251.415" y="101.532" width="30.915" height="30.468"/>
		<rect x="-230.427" y="86.121" width="9.924" height="9.783"/>
	</g>
	<rect x="-535.5" y="67.5" display="inline" stroke="#000000" stroke-miterlimit="10" width="90" height="90"/>
	<rect x="-409.5" y="67.5" display="inline" stroke="#000000" stroke-miterlimit="10" width="90" height="90"/>
	<rect x="-280.5" y="67.5" display="inline" stroke="#000000" stroke-miterlimit="10" width="90" height="90"/>
	<rect x="-148.5" y="67.5" display="inline" stroke="#000000" stroke-miterlimit="10" width="90" height="90"/>
</g>
<path fill="#ffc0a4" d="M150,140c-5.514,0-10,4.486-10,10s4.486,10,10,10c5.515,0,10-4.486,10-10S155.515,140,150,140z
	 M147.292,158.111c-1.885-0.629-3.488-1.89-4.55-3.59l-0.024-0.153c-0.002-0.013-0.015-0.108-0.015-0.277
	c0-0.431,0.086-1.328,0.665-2.505c0.723-1.467,1.966-2.897,3.696-4.248c0.071-0.055,0.141-0.108,0.21-0.161
	c0.133,0.236,0.243,0.481,0.333,0.743c0.208,0.603,0.309,1.283,0.309,2.08c0,1.25-0.256,2.63-0.507,3.813
	c-0.189,0.896-0.286,1.758-0.286,2.564C147.123,157.105,147.201,157.685,147.292,158.111z M152.048,143.417
	c-0.411-0.56-0.627-1.09-0.627-1.541c0-0.128,0.018-0.231,0.037-0.306c1.187,0.205,2.319,0.663,3.321,1.339
	C154.077,142.953,153.145,143.085,152.048,143.417z M149.009,144.717c-0.496,0.275-0.995,0.583-1.489,0.919
	c-0.062-0.069-0.125-0.138-0.191-0.205c-0.699-0.706-1.559-1.064-2.559-1.064c-0.444,0-0.906,0.071-1.387,0.216
	c0.769-0.938,1.729-1.706,2.816-2.247C146.587,142.49,147.597,143.019,149.009,144.717z M142.283,146.311l0.055-0.038
	c0.003-0.002,0.308-0.21,0.778-0.415c0.402-0.175,1.015-0.383,1.653-0.383c0.703,0.001,1.283,0.241,1.773,0.735
	c0.025,0.025,0.049,0.051,0.074,0.077c-0.077,0.059-0.155,0.118-0.233,0.179c-1.863,1.455-3.211,3.014-4.009,4.633
	c-0.235,0.479-0.418,0.956-0.548,1.429c-0.253-0.815-0.381-1.662-0.381-2.528C141.445,148.709,141.728,147.469,142.283,146.311z
	 M148.491,154.043c0.262-1.244,0.53-2.696,0.53-4.043c0-0.92-0.121-1.718-0.369-2.439c-0.122-0.357-0.282-0.703-0.477-1.031
	c0.506-0.343,1.017-0.654,1.524-0.927c0.338,0.46,0.68,0.964,1.017,1.5c1.217,1.945,2.166,3.78,2.82,5.455
	c0.623,1.598,0.953,3.011,0.952,4.088c0,0.232-0.017,0.455-0.049,0.664c-1.752,1.068-3.802,1.484-5.917,1.116
	c-0.099-0.274-0.293-0.955-0.293-2.047C148.23,155.646,148.318,154.862,148.491,154.043z M154.567,152.154
	c-0.677-1.734-1.657-3.632-2.913-5.64c-0.31-0.493-0.628-0.967-0.949-1.411c0.327-0.147,0.651-0.28,0.971-0.396
	c1.622,1.827,3.344,2.754,4.183,3.206c0.424,0.229,0.962,0.639,1.44,1.098c0.536,0.513,0.968,1.053,1.217,1.521l0.02,0.037
	c-0.152,2.281-1.214,4.4-2.941,5.897C155.563,155.27,155.217,153.819,154.567,152.154z M152.843,144.343
	c1.088-0.283,1.956-0.346,2.514-0.346c0.179,0,0.353,0.006,0.53,0.018l0.239,0.018c1.22,1.252,2.023,2.844,2.31,4.553
	c-0.118-0.125-0.242-0.251-0.371-0.375c-0.557-0.533-1.17-0.996-1.682-1.272C155.669,146.555,154.232,145.781,152.843,144.343z
	 M150.013,141.202v0.244c0.114,0,0.226,0.003,0.338,0.009c-0.025,0.136-0.038,0.277-0.038,0.422c0,0.43,0.118,1.098,0.648,1.919
	c-0.317,0.124-0.634,0.26-0.947,0.408c-1-1.231-1.858-1.96-2.497-2.39c0.802-0.244,1.635-0.368,2.482-0.368L150.013,141.202
	L150.013,141.202z"/>
</svg>
