<?xml version="1.0" encoding="utf-8"?>
<!-- Generator: Adobe Illustrator 16.0.0, SVG Export Plug-In . SVG Version: 6.00 Build 0)  -->
<!DOCTYPE svg PUBLIC "-//W3C//DTD SVG 1.1//EN" "http://www.w3.org/Graphics/SVG/1.1/DTD/svg11.dtd">
<svg version="1.1" id="圖層_1" xmlns="http://www.w3.org/2000/svg" xmlns:xlink="http://www.w3.org/1999/xlink" x="0px" y="0px"
	 width="20px" height="20px" viewBox="0 0 20 20" enable-background="new 0 0 20 20" xml:space="preserve">
<path fill="#ffd490" d="M10,0C4.486,0,0,4.486,0,10c0,5.516,4.486,10,10,10s10-4.484,10-10C20,4.486,15.514,0,10,0z M16.941,15.736
	l-0.441,0.3c-0.232-0.212-0.452-0.438-0.66-0.677l0.523-0.233c0.125-0.056,0.181-0.202,0.125-0.326
	c-0.057-0.125-0.201-0.181-0.327-0.125l-0.647,0.289c-0.193-0.249-0.373-0.508-0.537-0.778l0.561-0.141
	c0.133-0.033,0.214-0.167,0.18-0.3c-0.031-0.134-0.167-0.212-0.3-0.181l-0.692,0.174c-0.146-0.278-0.275-0.565-0.392-0.861
	l0.576-0.041c0.137-0.01,0.239-0.128,0.229-0.264c-0.011-0.137-0.123-0.239-0.265-0.23l-0.714,0.053
	c-0.096-0.299-0.176-0.604-0.236-0.918l0.577,0.061c0.136,0.016,0.258-0.084,0.271-0.221c0.015-0.137-0.084-0.258-0.221-0.271
	l-0.711-0.072c-0.041-0.311-0.064-0.625-0.07-0.943l0.555,0.158c0.023,0.006,0.046,0.01,0.068,0.01c0.107,0,0.207-0.071,0.237-0.18
	c0.037-0.133-0.039-0.27-0.17-0.308l-0.687-0.194c0.013-0.32,0.041-0.635,0.09-0.942l0.521,0.253
	c0.035,0.017,0.072,0.025,0.108,0.025c0.091,0,0.18-0.053,0.222-0.141c0.062-0.123,0.009-0.271-0.114-0.331l-0.643-0.313
	c0.068-0.31,0.154-0.612,0.256-0.909l0.469,0.339c0.043,0.031,0.094,0.047,0.145,0.047c0.076,0,0.152-0.035,0.201-0.104
	c0.08-0.109,0.055-0.266-0.057-0.346l-0.576-0.418c0.121-0.292,0.256-0.576,0.408-0.853l0.401,0.413
	c0.049,0.052,0.112,0.076,0.178,0.076c0.063,0,0.124-0.022,0.173-0.069c0.098-0.097,0.102-0.252,0.006-0.351l-0.494-0.51
	c0.168-0.267,0.354-0.521,0.551-0.768l0.32,0.474c0.049,0.07,0.125,0.108,0.205,0.108c0.047,0,0.096-0.014,0.139-0.043
	c0.113-0.076,0.143-0.23,0.066-0.344L15.95,4.225c0.159-0.177,0.329-0.342,0.504-0.502c1.579,1.623,2.555,3.838,2.555,6.275
	C19.01,12.18,18.232,14.178,16.941,15.736z M3.416,3.857c0.04-0.022,0.072-0.057,0.094-0.099c0.133-0.137,0.268-0.271,0.408-0.399
	c0.178,0.146,0.354,0.295,0.52,0.453l-0.35,0.606C4.02,4.537,4.061,4.689,4.178,4.757C4.217,4.779,4.26,4.79,4.302,4.79
	c0.087,0,0.169-0.045,0.216-0.124l0.28-0.486C5.012,4.409,5.214,4.65,5.4,4.904L4.949,5.443C4.861,5.547,4.874,5.704,4.979,5.792
	C5.025,5.831,5.082,5.85,5.139,5.85c0.069,0,0.141-0.029,0.189-0.088l0.363-0.434c0.172,0.264,0.328,0.535,0.47,0.818L5.62,6.6
	C5.516,6.688,5.501,6.844,5.589,6.95c0.05,0.058,0.119,0.088,0.19,0.088c0.056,0,0.111-0.019,0.158-0.058l0.438-0.367
	c0.122,0.289,0.228,0.586,0.317,0.89L6.078,7.857C5.959,7.924,5.919,8.076,5.986,8.195c0.047,0.078,0.13,0.123,0.216,0.123
	c0.042,0,0.084-0.012,0.123-0.032l0.499-0.288c0.07,0.307,0.121,0.617,0.156,0.934L6.313,9.174C6.186,9.221,6.118,9.361,6.165,9.491
	c0.037,0.101,0.131,0.163,0.231,0.163c0.028,0,0.058-0.006,0.084-0.016L7.02,9.443c0.017,0.315,0.016,0.633-0.004,0.945
	l-0.703,0.123c-0.135,0.022-0.225,0.15-0.201,0.285c0.024,0.135,0.15,0.227,0.287,0.201l0.571-0.1
	c-0.038,0.313-0.098,0.625-0.172,0.931H6.083l0,0c-0.138,0-0.248,0.108-0.248,0.247c0,0.136,0.11,0.247,0.248,0.247l0.58,0.001
	c-0.093,0.302-0.202,0.599-0.329,0.887l-0.706-0.125c-0.135-0.023-0.263,0.066-0.287,0.2c-0.024,0.135,0.065,0.263,0.2,0.287
	l0.57,0.102c-0.145,0.28-0.307,0.552-0.482,0.816L4.96,14.246c-0.128-0.048-0.271,0.02-0.317,0.146
	c-0.047,0.129,0.02,0.271,0.147,0.317l0.542,0.197c-0.105,0.14-0.215,0.276-0.331,0.411c-0.092,0.105-0.187,0.209-0.28,0.311
	l-0.619-0.357c-0.117-0.068-0.27-0.028-0.338,0.09c-0.068,0.117-0.027,0.271,0.09,0.339l0.5,0.289
	c-0.19,0.177-0.391,0.342-0.595,0.499c-1.704-1.641-2.771-3.942-2.771-6.489C0.99,7.628,1.913,5.469,3.416,3.857z M4.13,16.827
	c0.195-0.153,0.388-0.312,0.569-0.481l0.277,0.512c0.045,0.082,0.131,0.129,0.219,0.129c0.039,0,0.08-0.01,0.117-0.029
	c0.121-0.064,0.166-0.215,0.1-0.335l-0.346-0.638c0.104-0.11,0.209-0.225,0.31-0.34c0.125-0.146,0.243-0.295,0.358-0.446
	l0.363,0.458c0.049,0.062,0.121,0.094,0.194,0.094c0.054,0,0.108-0.018,0.153-0.055c0.107-0.084,0.125-0.24,0.041-0.348
	l-0.453-0.568c0.191-0.286,0.367-0.582,0.523-0.887l0.437,0.385c0.047,0.041,0.104,0.063,0.164,0.063
	c0.067,0,0.136-0.027,0.185-0.084c0.092-0.104,0.081-0.259-0.021-0.349L6.779,13.43c0.14-0.315,0.258-0.64,0.359-0.969l0.495,0.305
	c0.041,0.023,0.085,0.035,0.13,0.035c0.082,0,0.164-0.042,0.211-0.117c0.07-0.117,0.034-0.27-0.082-0.342l-0.617-0.378
	c0.08-0.334,0.145-0.671,0.188-1.014l0.541,0.213c0.03,0.012,0.061,0.019,0.09,0.019c0.1,0,0.192-0.061,0.23-0.158
	c0.05-0.127-0.014-0.271-0.141-0.32l-0.676-0.268c0.021-0.341,0.023-0.685,0.006-1.031l0.574,0.117
	c0.135,0.027,0.266-0.06,0.292-0.192c0.027-0.134-0.06-0.265-0.192-0.292L7.473,8.893c-0.037-0.347-0.095-0.686-0.17-1.017
	l0.586,0.015c0.131,0.008,0.25-0.104,0.254-0.24S8.038,7.4,7.9,7.396l-0.729-0.02C7.074,7.045,6.959,6.721,6.825,6.406l0.582-0.088
	c0.135-0.02,0.229-0.146,0.208-0.28C7.596,5.902,7.471,5.811,7.334,5.83L6.609,5.938C6.456,5.629,6.283,5.331,6.096,5.043
	L6.66,4.855c0.129-0.043,0.199-0.185,0.156-0.313S6.633,4.343,6.503,4.387L5.805,4.62C5.6,4.343,5.38,4.08,5.146,3.829l0.525-0.285
	c0.12-0.065,0.165-0.216,0.1-0.336c-0.064-0.12-0.215-0.164-0.334-0.101L4.785,3.462C4.628,3.313,4.465,3.17,4.297,3.031
	C5.852,1.757,7.839,0.99,10.001,0.99c2.353,0,4.495,0.906,6.103,2.388c-0.183,0.168-0.358,0.341-0.524,0.522l-0.665-0.303
	c-0.124-0.059-0.271-0.003-0.328,0.121s-0.002,0.271,0.122,0.328l0.537,0.245c-0.216,0.267-0.416,0.546-0.601,0.837l-0.709-0.184
	c-0.131-0.035-0.267,0.045-0.301,0.177C13.6,5.255,13.68,5.391,13.813,5.424l0.566,0.146c-0.166,0.301-0.314,0.611-0.445,0.931
	l-0.726-0.058c-0.14-0.015-0.256,0.09-0.267,0.227c-0.012,0.137,0.091,0.255,0.227,0.266l0.584,0.047
	c-0.111,0.324-0.205,0.654-0.279,0.994l-0.722,0.068c-0.136,0.014-0.235,0.133-0.224,0.27c0.014,0.137,0.131,0.234,0.271,0.224
	l0.579-0.056c-0.053,0.336-0.083,0.679-0.098,1.025l-0.7,0.193c-0.132,0.035-0.209,0.173-0.173,0.305
	c0.037,0.132,0.173,0.208,0.305,0.173l0.564-0.155c0.006,0.348,0.031,0.69,0.078,1.027l-0.656,0.313
	c-0.125,0.06-0.176,0.207-0.117,0.33c0.043,0.09,0.132,0.142,0.225,0.142c0.035,0,0.071-0.008,0.105-0.024l0.525-0.25
	c0.066,0.34,0.153,0.674,0.258,0.998l-0.59,0.422c-0.112,0.078-0.139,0.232-0.06,0.345c0.049,0.067,0.124,0.104,0.202,0.104
	c0.05,0,0.1-0.016,0.143-0.047l0.478-0.339c0.125,0.322,0.267,0.635,0.427,0.938l-0.512,0.521c-0.096,0.099-0.094,0.254,0.004,0.351
	c0.048,0.047,0.109,0.07,0.173,0.07s0.128-0.023,0.177-0.074l0.411-0.418c0.179,0.295,0.374,0.576,0.585,0.848l-0.415,0.604
	c-0.077,0.112-0.05,0.268,0.063,0.344c0.043,0.03,0.092,0.045,0.14,0.045c0.079,0,0.156-0.037,0.204-0.106l0.335-0.486
	c0.226,0.259,0.465,0.507,0.72,0.737l-0.113,0.247c-1.602,1.46-3.729,2.352-6.063,2.352C7.759,19.01,5.708,18.188,4.13,16.827z"/>
</svg>
